<?xml version="1.0" encoding="UTF-8" standalone="no"?>
<!-- Created with Inkscape (http://www.inkscape.org/) -->

<svg
   xmlns:dc="http://purl.org/dc/elements/1.1/"
   xmlns:cc="http://creativecommons.org/ns#"
   xmlns:rdf="http://www.w3.org/1999/02/22-rdf-syntax-ns#"
   xmlns:svg="http://www.w3.org/2000/svg"
   xmlns="http://www.w3.org/2000/svg"
   xmlns:sodipodi="http://sodipodi.sourceforge.net/DTD/sodipodi-0.dtd"
   xmlns:inkscape="http://www.inkscape.org/namespaces/inkscape"
   width="33.828999mm"
   height="14.111mm"
   viewBox="0 0 33.828999 14.111"
   version="1.1"
   id="svg8781"
   inkscape:version="0.92.4 (5da689c313, 2019-01-14)"
   sodipodi:docname="logo.svg">
  <defs
     id="defs8775">
    <clipPath
       clipPathUnits="userSpaceOnUse"
       id="clipPath328">
      <path
         d="M 0,4233 H 1440 V 0 H 0 Z"
         id="path326"
         inkscape:connector-curvature="0" />
    </clipPath>
  </defs>
  <sodipodi:namedview
     id="base"
     pagecolor="#ffffff"
     bordercolor="#666666"
     borderopacity="1.0"
     inkscape:pageopacity="0.0"
     inkscape:pageshadow="2"
     inkscape:zoom="3.959798"
     inkscape:cx="101.67473"
     inkscape:cy="33.911371"
     inkscape:document-units="mm"
     inkscape:current-layer="layer1"
     showgrid="false"
     inkscape:window-width="1366"
     inkscape:window-height="745"
     inkscape:window-x="-8"
     inkscape:window-y="-8"
     inkscape:window-maximized="1" />
  <metadata
     id="metadata8778">
    <rdf:RDF>
      <cc:Work
         rdf:about="">
        <dc:format>image/svg+xml</dc:format>
        <dc:type
           rdf:resource="http://purl.org/dc/dcmitype/StillImage" />
        <dc:title />
      </cc:Work>
    </rdf:RDF>
  </metadata>
  <g
     inkscape:label="Capa 1"
     inkscape:groupmode="layer"
     id="layer1"
     transform="translate(0,-282.889)">
    <g
       transform="matrix(0.35277777,0,0,-0.35277777,-42.333299,1748.516)"
       id="g322">
      <g
         id="g324"
         clip-path="url(#clipPath328)">
        <g
           id="g330"
           transform="translate(138.1318,4134.9536)">
          <path
             d="M 0,0 C -2.519,-0.011 -4.599,2.024 -4.596,4.495 -4.593,6.98 -2.537,8.958 0.025,8.941 2.533,8.924 4.568,6.945 4.583,4.509 4.599,2.034 2.542,0.01 0,0 m 15.444,6.318 c -0.899,7.278 -7.237,12.969 -14.657,13.25 -0.266,0.011 -0.53,0.013 -0.793,0.011 -0.264,0.002 -0.528,0 -0.794,-0.011 -7.42,-0.281 -13.759,-5.972 -14.657,-13.25 -0.138,-1.124 -0.163,-2.228 -0.07,-3.307 -0.853,-3.244 -1.712,-5.684 -2.539,-8.939 -0.2,-0.79 0.045,-1.087 0.876,-1.096 0.747,-0.009 1.495,-0.035 2.239,0.006 0.603,0.034 0.759,-0.218 0.788,-0.757 0.093,-1.687 0.254,-3.371 0.354,-5.058 0.124,-2.098 1.482,-2.767 3.352,-2.4 1.436,0.28 2.852,0.657 4.273,1.004 0.46,0.112 0.996,0.103 1.413,-0.437 l 0.001,0.011 c 1.387,-1.809 2.775,-3.618 4.159,-5.43 0.024,-0.04 0.053,-0.078 0.085,-0.112 0.129,-0.137 0.314,-0.223 0.52,-0.223 0.206,0 0.39,0.086 0.519,0.223 0.032,0.034 0.061,0.072 0.086,0.112 4.082,5.344 8.199,10.664 12.222,16.05 2.296,3.075 3.085,6.609 2.623,10.353"
             style="fill:#199ad7;fill-opacity:1;fill-rule:nonzero;stroke:none"
             id="path332"
             inkscape:connector-curvature="0" />
        </g>
      </g>
    </g>
    <g
       aria-label="ideca"
       transform="scale(1.0162812,0.98397963)"
       style="font-variant:normal;font-weight:normal;font-stretch:normal;font-size:7.83498335px;font-family:'Gotham Rounded Book';-inkscape-font-specification:GothamRounded-Book;writing-mode:lr-tb;fill:#199bd8;fill-opacity:1;fill-rule:nonzero;stroke:none;stroke-width:0.34712613"
       id="text336">
      <path
         d="m 14.569729,292.24336 c 0,0.18804 0.1567,0.32123 0.352575,0.32123 0.203709,0 0.360409,-0.13319 0.360409,-0.32123 v -0.10186 c 0,-0.19587 -0.1567,-0.32123 -0.360409,-0.32123 -0.195875,0 -0.352575,0.12536 -0.352575,0.32123 z m 0.05485,4.95171 c 0,0.17237 0.133195,0.30556 0.305565,0.30556 0.172369,0 0.297729,-0.13319 0.297729,-0.30556 v -3.51791 c 0,-0.17237 -0.133195,-0.30557 -0.305564,-0.30557 -0.164535,0 -0.29773,0.14103 -0.29773,0.30557 z"
         style="stroke-width:0.34712613"
         id="path8829" />
      <path
         d="m 20.257915,292.00831 c 0,-0.17237 -0.133195,-0.30557 -0.305564,-0.30557 -0.17237,0 -0.29773,0.1332 -0.29773,0.30557 v 2.17812 c -0.313399,-0.45443 -0.799168,-0.86184 -1.551326,-0.86184 -0.971538,0 -1.935241,0.78349 -1.935241,2.10761 v 0.0157 c 0,1.33194 0.963703,2.09977 1.935241,2.09977 0.744323,0 1.222257,-0.41525 1.551326,-0.90102 v 0.54845 c 0,0.17237 0.133195,0.30556 0.305565,0.30556 0.164534,0 0.297729,-0.13319 0.297729,-0.30556 z m -2.044931,1.85689 c 0.752159,0 1.465142,0.6268 1.465142,1.55916 v 0.0157 c 0,0.93236 -0.712983,1.567 -1.465142,1.567 -0.759993,0 -1.425966,-0.61113 -1.425966,-1.567 v -0.0157 c 0,-0.97937 0.642468,-1.55916 1.425966,-1.55916 z"
         style="stroke-width:0.34712613"
         id="path8831" />
      <path
         d="m 21.738731,295.21282 c 0.07835,-0.79134 0.611129,-1.37896 1.316278,-1.37896 0.807003,0 1.230092,0.64247 1.292772,1.37896 z m 2.938119,1.73153 c 0.06268,-0.0548 0.09402,-0.12536 0.09402,-0.19588 0,-0.14103 -0.117525,-0.25855 -0.26639,-0.25855 -0.07051,0 -0.125359,0.0313 -0.172369,0.0705 -0.29773,0.27423 -0.665974,0.4701 -1.167413,0.4701 -0.720818,0 -1.339782,-0.4936 -1.425967,-1.37112 h 2.930284 c 0.148865,0 0.28206,-0.11752 0.28206,-0.28206 0,-1.07339 -0.681644,-2.05276 -1.880396,-2.05276 -1.120403,0 -1.943076,0.94019 -1.943076,2.10761 v 0.0157 c 0,1.25359 0.908858,2.10761 2.021425,2.10761 0.689479,0 1.143908,-0.24289 1.527822,-0.61113 z"
         style="stroke-width:0.34712613"
         id="path8833" />
      <path
         d="m 27.614968,297.55548 c 0.681643,0 1.143907,-0.26639 1.527822,-0.65031 0.04701,-0.047 0.07835,-0.11752 0.07835,-0.18804 0,-0.14103 -0.125359,-0.27422 -0.274224,-0.27422 -0.07835,0 -0.133195,0.0392 -0.17237,0.0784 -0.297729,0.28206 -0.665973,0.4936 -1.128237,0.4936 -0.846178,0 -1.488647,-0.69731 -1.488647,-1.57483 v -0.0157 c 0,-0.86968 0.626799,-1.567 1.449472,-1.567 0.485769,0 0.814838,0.21938 1.104733,0.48577 0.04701,0.0392 0.117524,0.0705 0.195874,0.0705 0.1567,0 0.289895,-0.12536 0.289895,-0.2899 0,-0.094 -0.04701,-0.17237 -0.09402,-0.21154 -0.360409,-0.32907 -0.814839,-0.58762 -1.488647,-0.58762 -1.183083,0 -2.076271,0.97153 -2.076271,2.11544 v 0.0157 c 0,1.13607 0.893188,2.09978 2.076271,2.09978 z"
         style="stroke-width:0.34712613"
         id="path8835" />
      <path
         d="m 31.242563,297.54764 c 0.712984,0 1.183083,-0.32907 1.465142,-0.69731 v 0.36824 c 0,0.1567 0.117525,0.28206 0.289895,0.28206 0.164534,0 0.289894,-0.12536 0.289894,-0.29773 v -2.2173 c 0,-0.51711 -0.14103,-0.90886 -0.415254,-1.18308 -0.297729,-0.29773 -0.736489,-0.44659 -1.308442,-0.44659 -0.517109,0 -0.924528,0.10185 -1.324113,0.27422 -0.07835,0.0313 -0.164534,0.12536 -0.164534,0.25072 0,0.14103 0.12536,0.25855 0.266389,0.25855 0.03134,0 0.07052,-0.008 0.10969,-0.0235 0.297729,-0.1332 0.642469,-0.22722 1.049888,-0.22722 0.759993,0 1.206587,0.37608 1.206587,1.10474 v 0.14103 c -0.360409,-0.10186 -0.728653,-0.17237 -1.245762,-0.17237 -1.026383,0 -1.731531,0.45443 -1.731531,1.30844 v 0.0157 c 0,0.83051 0.759993,1.26143 1.512151,1.26143 z m 0.117525,-0.47793 c -0.548449,0 -1.018548,-0.29773 -1.018548,-0.80701 v -0.0157 c 0,-0.50927 0.423089,-0.83834 1.183083,-0.83834 0.493604,0 0.893188,0.0862 1.190917,0.17237 v 0.39175 c 0,0.64247 -0.611128,1.0969 -1.355452,1.0969 z"
         style="stroke-width:0.34712613"
         id="path8837" />
    </g>
  </g>
</svg>
