<?xml version="1.0" encoding="utf-8"?>
<!-- Generator: Adobe Illustrator 21.0.1, SVG Export Plug-In . SVG Version: 6.00 Build 0)  -->
<svg version="1.1" id="Capa_1" xmlns="http://www.w3.org/2000/svg" xmlns:xlink="http://www.w3.org/1999/xlink" x="0px" y="0px"
	 viewBox="0 0 181.3 162.5" style="enable-background:new 0 0 181.3 162.5;" xml:space="preserve">
<style type="text/css">
	.st0{fill:#FFFFFF;}
	.st1{font-family:'ArialMT';}
	.st2{font-size:8.7759px;}
	.st3{font-size:7.6058px;}
</style>
<g>
	<path class="st0" d="M41.1,109.3h-2.2L38,107h-4l-0.8,2.3H31l3.9-10.1h2.2L41.1,109.3z M37.3,105.3l-1.4-3.7l-1.4,3.7H37.3z"/>
	<polygon class="st0" points="41.6,109.3 41.6,99.3 43.7,99.3 43.7,107.6 48.8,107.6 48.8,109.3 	"/>
	<path class="st0" d="M55.6,105.6l2,0.6c-0.3,1.1-0.8,1.9-1.5,2.5c-0.7,0.5-1.6,0.8-2.7,0.8c-1.3,0-2.4-0.5-3.3-1.4
		c-0.9-0.9-1.3-2.2-1.3-3.8c0-1.7,0.4-3,1.3-3.9c0.9-0.9,2-1.4,3.4-1.4c1.2,0,2.2,0.4,3,1.1c0.5,0.4,0.8,1.1,1,1.9l-2,0.5
		c-0.1-0.5-0.4-0.9-0.7-1.2c-0.4-0.3-0.8-0.5-1.4-0.5c-0.8,0-1.4,0.3-1.8,0.8c-0.5,0.5-0.7,1.4-0.7,2.6c0,1.3,0.2,2.2,0.7,2.7
		c0.5,0.5,1.1,0.8,1.8,0.8c0.5,0,1-0.2,1.4-0.5C55.1,106.8,55.4,106.3,55.6,105.6"/>
	<path class="st0" d="M67.7,109.3h-2.2l-0.9-2.3h-4l-0.8,2.3h-2.2l3.9-10.1h2.2L67.7,109.3z M63.9,105.3l-1.4-3.7l-1.4,3.7H63.9z"/>
	<polygon class="st0" points="68.4,109.3 68.4,99.3 70.5,99.3 70.5,107.6 75.5,107.6 75.5,109.3 	"/>
	<path class="st0" d="M76.4,99.2h3.7c0.8,0,1.5,0.1,1.9,0.2c0.6,0.2,1.1,0.5,1.5,0.9c0.4,0.4,0.7,1,1,1.6c0.2,0.6,0.3,1.4,0.3,2.4
		c0,0.8-0.1,1.5-0.3,2.2c-0.3,0.7-0.6,1.3-1.1,1.8c-0.4,0.3-0.8,0.6-1.4,0.8c-0.5,0.1-1.1,0.2-1.8,0.2h-3.8V99.2z M78.4,100.9v6.7
		h1.5c0.6,0,1,0,1.2-0.1c0.3-0.1,0.6-0.2,0.8-0.4c0.2-0.2,0.4-0.5,0.5-1c0.1-0.5,0.2-1.1,0.2-1.8c0-0.8-0.1-1.4-0.2-1.8
		c-0.1-0.4-0.3-0.7-0.6-1c-0.3-0.2-0.6-0.4-0.9-0.5c-0.3-0.1-0.8-0.1-1.7-0.1H78.4z"/>
	<path class="st0" d="M86.3,98.3l0.9-2.1h2.2l-1.9,2.1H86.3z M85.7,99.2h2v10.1h-2V99.2z"/>
	<path class="st0" d="M98.9,109.3h-2.2l-0.9-2.3h-4l-0.8,2.3h-2.2l3.9-10.1h2.2L98.9,109.3z M95.1,105.3l-1.4-3.7l-1.4,3.7H95.1z"/>
	<polygon class="st0" points="103.6,109.3 103.6,99.2 106.7,99.2 108.5,106.1 110.3,99.2 113.4,99.2 113.4,109.3 111.5,109.3 
		111.5,101.3 109.5,109.3 107.5,109.3 105.5,101.3 105.5,109.3 	"/>
	<path class="st0" d="M124.3,109.3h-2.2l-0.9-2.3h-4l-0.8,2.3h-2.2l3.9-10.1h2.2L124.3,109.3z M120.5,105.3l-1.4-3.7l-1.4,3.7H120.5
		z"/>
	<polygon class="st0" points="125.5,109.3 125.5,105 121.8,99.2 124.1,99.2 126.5,103.2 128.9,99.2 131.2,99.2 127.5,105.1 
		127.5,109.3 	"/>
	<path class="st0" d="M130.3,104.3c0-1,0.2-1.9,0.5-2.6c0.2-0.5,0.5-1,0.9-1.4c0.4-0.4,0.8-0.7,1.3-0.9c0.6-0.3,1.4-0.4,2.2-0.4
		c1.5,0,2.7,0.5,3.6,1.4c0.9,0.9,1.3,2.2,1.3,3.9c0,1.6-0.4,2.9-1.3,3.8c-0.9,0.9-2.1,1.4-3.6,1.4c-1.5,0-2.7-0.5-3.6-1.4
		C130.8,107.2,130.3,105.9,130.3,104.3 M132.4,104.2c0,1.1,0.3,2,0.8,2.6c0.5,0.6,1.2,0.9,2,0.9c0.8,0,1.5-0.3,2-0.9
		c0.5-0.6,0.8-1.5,0.8-2.6c0-1.2-0.2-2-0.8-2.6c-0.5-0.6-1.2-0.9-2-0.9c-0.8,0-1.5,0.3-2,0.9C132.7,102.2,132.4,103.1,132.4,104.2"
		/>
	<path class="st0" d="M140.8,109.3V99.2h4.3c1.1,0,1.9,0.1,2.4,0.3c0.5,0.2,0.9,0.5,1.2,1c0.3,0.5,0.4,1,0.4,1.6
		c0,0.8-0.2,1.4-0.7,1.9c-0.4,0.5-1.1,0.8-2,0.9c0.4,0.3,0.8,0.5,1.1,0.8c0.3,0.3,0.7,0.8,1.2,1.6l1.2,2h-2.4l-1.5-2.2
		c-0.5-0.8-0.9-1.3-1.1-1.5c-0.2-0.2-0.4-0.3-0.6-0.4c-0.2-0.1-0.6-0.1-1-0.1h-0.4v4.2H140.8z M142.9,103.5h1.5c1,0,1.6,0,1.8-0.1
		c0.3-0.1,0.4-0.2,0.6-0.4c0.1-0.2,0.2-0.5,0.2-0.8c0-0.3-0.1-0.6-0.3-0.8c-0.2-0.2-0.4-0.3-0.8-0.4c-0.2,0-0.7,0-1.5,0h-1.6V103.5z
		"/>
	<rect x="129.6" y="123.7" class="st0" width="1.9" height="1.9"/>
	<path class="st0" d="M38.2,115.7h3.7c0.8,0,1.5,0.1,1.9,0.2c0.6,0.2,1.1,0.5,1.5,0.9c0.4,0.4,0.7,1,0.9,1.6
		c0.2,0.6,0.3,1.4,0.3,2.3c0,0.8-0.1,1.5-0.3,2.1c-0.3,0.7-0.6,1.3-1.1,1.7c-0.4,0.3-0.8,0.6-1.4,0.8c-0.4,0.1-1,0.2-1.8,0.2h-3.8
		V115.7z M40.2,117.3v6.6h1.5c0.6,0,1,0,1.2-0.1c0.3-0.1,0.6-0.2,0.8-0.4c0.2-0.2,0.4-0.5,0.5-1c0.1-0.4,0.2-1.1,0.2-1.8
		c0-0.8-0.1-1.4-0.2-1.8c-0.1-0.4-0.3-0.7-0.6-1c-0.2-0.2-0.6-0.4-0.9-0.5c-0.3-0.1-0.8-0.1-1.6-0.1H40.2z"/>
	<polygon class="st0" points="47.2,125.6 47.2,115.7 54.5,115.7 54.5,117.3 49.2,117.3 49.2,119.5 54.1,119.5 54.1,121.2 
		49.2,121.2 49.2,123.9 54.7,123.9 54.7,125.6 	"/>
	<path class="st0" d="M59.5,115.7h4c0.8,0,1.4,0,1.8,0.1c0.4,0.1,0.7,0.2,1,0.4c0.3,0.2,0.6,0.5,0.8,0.8c0.2,0.3,0.3,0.7,0.3,1.2
		c0,0.5-0.1,0.9-0.4,1.3c-0.2,0.4-0.6,0.7-1,0.9c0.6,0.2,1.1,0.5,1.4,0.9c0.3,0.4,0.5,0.9,0.5,1.5c0,0.5-0.1,0.9-0.3,1.3
		c-0.2,0.4-0.5,0.8-0.9,1c-0.4,0.3-0.8,0.4-1.4,0.5c-0.3,0-1.1,0.1-2.4,0.1h-3.4V115.7z M61.6,117.3v2.3h1.3c0.8,0,1.3,0,1.5,0
		c0.3,0,0.6-0.2,0.8-0.4c0.2-0.2,0.3-0.5,0.3-0.8c0-0.3-0.1-0.6-0.3-0.7c-0.2-0.2-0.4-0.3-0.8-0.3c-0.2,0-0.8,0-1.7,0H61.6z
		 M61.6,121.3v2.6h1.9c0.7,0,1.2,0,1.4-0.1c0.3-0.1,0.5-0.2,0.7-0.4c0.2-0.2,0.3-0.5,0.3-0.8c0-0.3-0.1-0.6-0.2-0.8
		c-0.1-0.2-0.4-0.4-0.6-0.5c-0.3-0.1-0.9-0.1-1.8-0.1H61.6z"/>
	<path class="st0" d="M68.6,120.7c0-1,0.2-1.8,0.4-2.5c0.2-0.5,0.5-1,0.9-1.4c0.4-0.4,0.8-0.7,1.3-0.9c0.6-0.3,1.3-0.4,2.1-0.4
		c1.5,0,2.6,0.5,3.5,1.4c0.9,0.9,1.3,2.2,1.3,3.8c0,1.6-0.4,2.9-1.3,3.7c-0.9,0.9-2,1.4-3.5,1.4c-1.5,0-2.6-0.5-3.5-1.3
		C69,123.5,68.6,122.3,68.6,120.7 M70.6,120.6c0,1.1,0.3,2,0.8,2.5c0.5,0.6,1.2,0.9,2,0.9c0.8,0,1.5-0.3,2-0.9
		c0.5-0.6,0.8-1.4,0.8-2.6c0-1.1-0.2-2-0.7-2.5c-0.5-0.6-1.2-0.8-2-0.8c-0.8,0-1.5,0.3-2,0.8C70.9,118.6,70.6,119.5,70.6,120.6"/>
	<path class="st0" d="M84,122v-1.7h4.3v3.9c-0.4,0.4-1,0.8-1.8,1.1c-0.8,0.3-1.6,0.5-2.4,0.5c-1,0-1.9-0.2-2.7-0.7
		c-0.8-0.4-1.4-1.1-1.7-1.9c-0.4-0.8-0.6-1.7-0.6-2.6c0-1,0.2-2,0.7-2.7c0.4-0.8,1.1-1.4,1.9-1.9c0.6-0.3,1.4-0.5,2.4-0.5
		c1.2,0,2.2,0.3,2.9,0.8c0.7,0.5,1.1,1.2,1.3,2.1l-2,0.4c-0.1-0.5-0.4-0.9-0.8-1.2c-0.4-0.3-0.9-0.4-1.4-0.4c-0.9,0-1.6,0.3-2.1,0.8
		c-0.5,0.6-0.8,1.4-0.8,2.5c0,1.2,0.3,2.1,0.8,2.6c0.5,0.6,1.2,0.9,2.1,0.9c0.4,0,0.8-0.1,1.3-0.2c0.4-0.2,0.8-0.4,1.1-0.6V122H84z"
		/>
	<path class="st0" d="M89.2,120.7c0-1,0.1-1.8,0.5-2.5c0.2-0.5,0.5-1,0.9-1.4c0.4-0.4,0.8-0.7,1.3-0.9c0.6-0.3,1.3-0.4,2.1-0.4
		c1.4,0,2.6,0.5,3.5,1.4c0.9,0.9,1.3,2.2,1.3,3.8c0,1.6-0.4,2.9-1.3,3.7c-0.9,0.9-2,1.4-3.5,1.4c-1.5,0-2.7-0.5-3.5-1.3
		C89.7,123.5,89.2,122.3,89.2,120.7 M91.3,120.6c0,1.1,0.3,2,0.8,2.5c0.5,0.6,1.2,0.9,2,0.9c0.8,0,1.5-0.3,2-0.9
		c0.5-0.6,0.8-1.4,0.8-2.6c0-1.1-0.2-2-0.7-2.5c-0.5-0.6-1.2-0.8-2-0.8c-0.8,0-1.5,0.3-2,0.8C91.5,118.6,91.3,119.5,91.3,120.6"/>
	<polygon class="st0" points="101.8,125.6 101.8,117.3 98.9,117.3 98.9,115.7 106.8,115.7 106.8,117.3 103.8,117.3 103.8,125.6 	"/>
	<path class="st0" d="M115.7,125.6h-2.2l-0.9-2.3h-4l-0.8,2.3h-2.1l3.9-9.9h2.1L115.7,125.6z M112,121.6l-1.4-3.7l-1.3,3.7H112z
		 M110,114.8l0.9-2h2.1l-1.9,2H110z"/>
	<path class="st0" d="M121.2,115.7h3.7c0.8,0,1.5,0.1,1.9,0.2c0.6,0.2,1.1,0.5,1.5,0.9c0.4,0.4,0.7,1,0.9,1.6
		c0.2,0.6,0.3,1.4,0.3,2.3c0,0.8-0.1,1.5-0.3,2.1c-0.2,0.7-0.6,1.3-1.1,1.7c-0.3,0.3-0.8,0.6-1.4,0.8c-0.4,0.1-1,0.2-1.8,0.2h-3.8
		V115.7z M123.2,117.3v6.6h1.5c0.6,0,1,0,1.2-0.1c0.3-0.1,0.6-0.2,0.8-0.4c0.2-0.2,0.4-0.5,0.5-1c0.1-0.4,0.2-1.1,0.2-1.8
		c0-0.8-0.1-1.4-0.2-1.8c-0.1-0.4-0.3-0.7-0.6-1c-0.2-0.2-0.6-0.4-0.9-0.5c-0.3-0.1-0.8-0.1-1.6-0.1H123.2z"/>
	<path class="st0" d="M138.3,121.9l1.9,0.6c-0.3,1.1-0.8,1.9-1.5,2.4c-0.7,0.5-1.6,0.8-2.6,0.8c-1.3,0-2.4-0.5-3.2-1.3
		c-0.9-0.9-1.3-2.1-1.3-3.7c0-1.6,0.4-2.9,1.3-3.8c0.9-0.9,2-1.4,3.4-1.4c1.2,0,2.2,0.4,3,1.1c0.5,0.4,0.8,1,1,1.8l-2,0.5
		c-0.1-0.5-0.4-0.9-0.7-1.2c-0.4-0.3-0.8-0.4-1.3-0.4c-0.8,0-1.3,0.3-1.8,0.8c-0.5,0.5-0.7,1.4-0.7,2.6c0,1.3,0.2,2.1,0.7,2.7
		c0.4,0.5,1,0.8,1.8,0.8c0.5,0,1-0.2,1.4-0.5C137.9,123.2,138.2,122.6,138.3,121.9"/>
	<rect x="140.6" y="123.7" class="st0" width="1.9" height="1.9"/>
	<g>
		<path class="st0" d="M89.1,29c-0.5,0-0.9,0.4-0.9,0.9c0,0.4,0.4,0.8,0.9,0.8c0.5,0,0.8-0.3,0.8-0.8C90,29.3,89.6,29,89.1,29z"/>
		<path class="st0" d="M101.5,17.1c0-0.8-0.9-1.7-2.6-1.7c-1.8,0-3.2,0.9-3.2,1.7c0.1,0.9,1.4,1.6,3.2,1.7
			C100.6,18.7,101.6,17.9,101.5,17.1z"/>
		<path class="st0" d="M61.2,25c0.8,0.1,1.7-0.8,1.8-2.4c0.1-1.7-0.5-3.1-1.4-3.2c-0.9-0.1-1.9,1.2-2,3C59.5,23.9,60.3,24.9,61.2,25
			z"/>
		<path class="st0" d="M86.8,80.3c-1.8-0.3-3.3,0.2-3.5,1c-0.2,0.8,1,1.9,2.7,2.3c1.7,0.4,2.9-0.3,3.1-1.1
			C89.2,81.6,88.5,80.6,86.8,80.3z"/>
		<path class="st0" d="M64.9,71.8c-1-1.4-2.4-2.1-3.2-1.7c-0.7,0.4-0.7,2,0.3,3.4c1,1.4,2.2,1.7,2.9,1.3
			C65.7,74.4,65.8,73.1,64.9,71.8z"/>
		<path class="st0" d="M90.4,7.5c-11,5.8-24.5,5.7-35.5-0.1V71c0,7.8,6.4,14,14.4,14c7.7,0,14.5,1.1,21.1,5.3
			c6.6-4.2,13.4-5.3,21.1-5.3c7.9,0,14.4-6.2,14.4-14V7.4C114.9,13.3,101.6,13.2,90.4,7.5z M119,17.4c0,0,0.2-1.4,0.5-1.4
			c0.3-0.1,0.7,1.3,0.7,1.3c0.5-0.5,1.6,0.1,1.6,0.1l-0.1,0.3c-0.8-0.3-1.5,0.5-1.4,1c0,0.3-1.2,0.3-1.2,0.1c0-0.4-0.8-1.2-1.6-0.9
			l-0.1-0.2C117.4,17.7,118.3,16.9,119,17.4z M119.7,19.2c2.2-0.2,4.1,1,4.2,2.7c0.1,1.6-1.3,3-3.3,3.3c1.2,0.4,2.5-0.1,3.2-0.2
			c0,0,0.3,2-2.9,1.4c0.1,1.6-0.9,2.8-1.3,4.4c0.2-0.3,0.5-0.6,0.9-0.8c0.9-0.5,2-0.7,3-0.5c-0.1,0.8-0.6,1.7-1.4,2.2
			c-0.8,0.5-1.7,0.7-2.6,0.7c0,0.8,0.3,1.6,0.8,2.7l-1.4,1.1c-0.7-1.4-1-4.6,0.2-6.9c0.7-1.5,0.9-2.1,0.8-2.7c-1,0.4-3,0.8-3.2-0.8
			c0,0,2.2,0.4,3.2-0.3c-2-0.1-3.7-1.2-3.9-2.8C115.9,20.8,117.5,19.3,119.7,19.2z M122.1,43.2l-0.1,0.3c-0.8-0.4-1.6,0.4-1.6,0.9
			c0,0.3-1.2,0.2-1.2-0.1c0.1-0.4-0.6-1.3-1.4-1l-0.1-0.3c0,0,1.1-0.6,1.6-0.1c0,0,0.5-1.4,0.7-1.3c0.3,0,0.5,1.4,0.5,1.4
			C121.2,42.5,122.1,43.2,122.1,43.2z M98.8,13.2c1.6,0,2.9,1.6,3,3.5c0.6-1.2,0.2-2.5,0.1-3.2c0,0,2.1-0.1,1.3,2.8
			c1.6,0.1,2.8,1.1,4.3,1.6c-0.3-0.3-0.5-0.6-0.7-0.9c-0.5-0.9-0.6-1.9-0.4-2.9c0.9,0.2,1.7,0.7,2.2,1.6c0.5,0.8,0.6,1.7,0.4,2.5
			c0.8,0,1.7-0.1,2.8-0.5l1.1,1.5c-1.5,0.5-4.9,0.5-7.1-0.8c-1.4-0.8-2.1-1-2.7-1c0.2,0.9,0.5,2.9-1.1,3c0,0,0.6-2.2-0.2-3.2
			c-0.1,2-1.5,3.5-3.2,3.5c-1.7,0-3.1-1.7-3-3.8C95.6,14.9,97,13.2,98.8,13.2z M93.7,16.4c-0.5-0.6,0.2-1.6,0.2-1.6l0.3,0.1
			c-0.4,0.8,0.4,1.5,0.9,1.5c0.3,0,0.3,1,0,1c-0.5,0-1.4,0.7-1.1,1.6h-0.3c0,0-0.6-1-0.1-1.6c0,0-1.4-0.3-1.4-0.5
			C92.1,16.7,93.7,16.4,93.7,16.4z M86.2,16.4c0.5,0,1.4-0.7,0.9-1.5l0.3-0.1c0,0,0.7,1,0.2,1.6c0,0,1.5,0.3,1.5,0.5
			c0,0.3-1.4,0.5-1.4,0.5c0.5,0.6-0.1,1.6-0.1,1.6h-0.3c0.3-0.9-0.5-1.6-1.1-1.6C85.9,17.5,85.9,16.4,86.2,16.4z M69.4,17.8
			c1.1,0.4,2,0.5,2.8,0.5c-0.1-0.8,0-1.7,0.5-2.5c0.5-0.9,1.3-1.4,2.2-1.6c0.3,1,0.2,2-0.4,2.9c-0.2,0.4-0.4,0.7-0.7,0.9
			c1.6-0.5,2.7-1.5,4.3-1.6c-0.8-2.9,1.3-2.8,1.3-2.8c-0.1,0.6-0.5,2,0.1,3.2c0-2,1.3-3.5,3-3.5c1.8,0,3.3,1.7,3.3,3.7
			c0.1,2.1-1.3,3.8-3,3.8c-1.8,0-3.2-1.6-3.3-3.5c-0.7,1-0.2,3.2-0.2,3.2c-1.7-0.1-1.4-2.1-1.1-3c-0.6,0-1.2,0.2-2.7,1
			c-2.3,1.3-5.6,1.3-7.1,0.8L69.4,17.8z M61.2,17.3c0,0,0.5-1.4,0.7-1.3c0.3,0,0.5,1.4,0.5,1.4c0.7-0.5,1.6,0.3,1.6,0.3l-0.1,0.2
			c-0.8-0.3-1.6,0.4-1.6,0.9c-0.1,0.3-1.2,0.2-1.2-0.1c0-0.4-0.6-1.3-1.4-1l-0.1-0.3C59.5,17.4,60.6,16.8,61.2,17.3z M61.6,19.2
			c2.2,0.1,3.8,1.6,3.7,3.2c-0.2,1.6-1.9,2.7-3.9,2.8c1,0.7,3.2,0.3,3.2,0.3c-0.3,1.7-2.2,1.2-3.2,0.8c-0.1,0.6,0.1,1.2,0.8,2.7
			c1.1,2.3,0.9,5.5,0.2,6.9L61,34.9c0.5-1,0.7-1.9,0.7-2.7c-0.9,0.1-1.8-0.1-2.5-0.7c-0.9-0.5-1.4-1.4-1.4-2.2c1-0.2,2.1,0,3,0.5
			c0.3,0.2,0.6,0.5,0.8,0.7c-0.4-1.6-1.4-2.7-1.2-4.3C57.2,27,57.5,25,57.5,25c0.7,0.2,2,0.7,3.2,0.2c-2-0.3-3.4-1.7-3.3-3.3
			C57.5,20.3,59.4,19.1,61.6,19.2z M63.6,43l-0.1,0.3c-0.8-0.4-1.5,0.5-1.5,1c0,0.3-1.1,0.4-1.2,0.1c0-0.4-0.8-1.2-1.6-0.9l-0.1-0.3
			c0,0,0.9-0.7,1.6-0.2c0,0,0.2-1.4,0.5-1.4c0.3-0.1,0.7,1.3,0.7,1.3C62.5,42.4,63.6,43,63.6,43z M56.9,53.1c1-0.1,2,0.3,2.7,1
			c0.6,0.4,0.9,1,0.9,1.5c0.1-0.3,0.2-0.6,0.3-0.8c0.7-1.5,0.9-2.1,0.8-2.7c-1,0.4-3,0.8-3.2-0.8c0,0,2.4,0.4,3.3-0.4
			c-2.1,0.1-3.8-1.1-4-2.7c-0.1-1.7,1.5-3.1,3.7-3.3c2.2-0.1,4.1,1.1,4.2,2.8c0.1,1.6-1.4,3-3.5,3.2c1.3,0.5,2.6,0,3.4-0.2
			c0,0,0.2,2-2.8,1.4c0.3,2.7-2.8,4.2-0.7,8.6l-1.4,1.1c-0.6-1.1-0.8-3.2-0.4-5.2c-0.9,0-1.9-0.3-2.6-1C57,54.8,56.8,53.9,56.9,53.1
			z M59.1,69.8l-0.2-0.2c0,0,0.5-1.1,1.4-1c0,0-0.6-1.3-0.4-1.5c0.3-0.2,1.3,0.9,1.3,0.9c0.3-0.8,1.4-0.8,1.4-0.8l0.1,0.3
			c-0.9,0.2-1.1,1.2-0.8,1.7c0.2,0.2-0.8,0.8-0.9,0.6C60.7,69.4,59.6,69.1,59.1,69.8z M71.1,82.8c-0.2-1.1-0.6-1.9-1-2.5
			c-0.7,0.5-1.5,0.9-2.4,0.9c-1.1,0.1-2.1-0.3-2.6-1c0.6-0.7,1.6-1.2,2.7-1.2c0.4,0,0.8,0,1.2,0.1c-1.3-1-2.8-1.4-3.8-2.7
			c-2.1,2.3-3.1,0.5-3.1,0.5c0.7-0.2,2.1-0.6,2.8-1.8c-1.8,1.1-3.9,0.8-4.8-0.5c-0.9-1.4-0.2-3.5,1.6-4.6c1.8-1.1,4.1-1,5,0.4
			c0.9,1.3,0.3,3.3-1.4,4.5c1.3,0.1,2.9-1.5,2.9-1.5c0.8,1.4-1.1,2.2-2.1,2.5c0.3,0.5,0.8,0.9,2.3,1.7c2.3,1.1,4.2,3.8,4.5,5.4
			L71.1,82.8z M82.5,81.6C82,81.5,81,82,81.2,82.9h-0.3c0,0-0.5-1,0.3-1.6c0,0-1.4-0.6-1.4-0.9c0.1-0.2,1.5-0.2,1.5-0.2
			c-0.4-0.8,0.4-1.6,0.4-1.6l0.3,0.2c-0.5,0.7,0.2,1.6,0.6,1.7C83,80.6,82.7,81.7,82.5,81.6z M99.2,83.9c-1-0.6-1.8-0.9-2.6-1.1
			c0,0.8-0.4,1.7-1,2.3c-0.7,0.8-1.6,1.1-2.5,1.1c0-1,0.4-2,1-2.8c0.3-0.3,0.6-0.5,0.9-0.7c-1.7,0.2-3,0.9-4.7,0.6
			c0.2,3-1.9,2.4-1.9,2.4c0.2-0.6,1-1.8,0.7-3.1c-0.4,1.9-2.1,3.2-3.8,2.8c-1.7-0.4-2.7-2.3-2.3-4.3c0.4-2.1,2.2-3.5,3.9-3.1
			c1.6,0.4,2.6,2.1,2.3,4.1c0.9-0.8,0.8-3,0.8-3c1.7,0.5,0.9,2.2,0.5,3.1c0.6,0.2,1.3,0.1,2.9-0.3c2.5-0.8,5.9-0.2,7.2,0.7
			L99.2,83.9z M90.4,77.2c-4.5-2.8-8.8-3.4-14.1-3.4c-5.4,0-9.2-4.2-9.2-9.2l0-42.8c5.7,3,18.2,1,23.7-1.8
			c5.5,2.9,17.9,4.8,23.7,1.8l-0.1,42.8c0,5.1-4.5,9.2-9.9,9.2C99.2,73.8,94.9,74.4,90.4,77.2z M121.3,74.5c-0.9,1.3-3,1.6-4.8,0.6
			c0.7,1.1,2.1,1.5,2.8,1.8c0,0-1,1.8-3.1-0.5c-0.9,1.4-2.5,1.7-3.8,2.8c0.4-0.1,0.8-0.1,1.2-0.1c1.1,0,2,0.5,2.7,1.2
			c-0.6,0.6-1.5,1.1-2.6,1c-0.9-0.1-1.7-0.4-2.4-0.9c-0.4,0.6-0.8,1.4-1,2.5l-1.9,0.1c0.4-1.6,2.2-4.3,4.5-5.4
			c1.5-0.8,2-1.2,2.3-1.7c-1-0.3-2.9-1-2.1-2.5c0,0,1.6,1.6,2.9,1.5c-1.7-1.2-2.3-3.1-1.3-4.5c0.9-1.4,3.2-1.6,5-0.4
			C121.4,71.1,122.2,73.2,121.3,74.5z M122.2,69.8c-0.5-0.8-1.5-0.4-1.8,0c-0.1,0.2-1.1-0.4-1-0.6c0.3-0.4,0.2-1.5-0.7-1.7l0.1-0.3
			c0,0,1.2,0,1.4,0.8c0,0,1-1,1.3-0.9c0.2,0.2-0.4,1.5-0.4,1.5c0.9-0.2,1.4,1,1.4,1L122.2,69.8z M123.5,55.5c-0.7,0.6-1.6,1-2.6,1
			c0.4,2,0.1,4.1-0.4,5.2l-1.4-1.1c2.2-4.3-0.9-5.9-0.7-8.6c-3.1,0.7-2.8-1.4-2.8-1.4c0.7,0.2,2,0.7,3.3,0.2
			c-2.1-0.2-3.6-1.6-3.5-3.2c0.2-1.7,2.1-2.9,4.2-2.8c2.2,0.2,3.8,1.7,3.7,3.3c-0.2,1.6-1.9,2.8-4,2.7c1,0.8,3.3,0.4,3.3,0.4
			c-0.3,1.7-2.2,1.2-3.2,0.8c-0.1,0.6,0.1,1.2,0.8,2.7c0.1,0.3,0.3,0.5,0.4,0.8c0.1-0.6,0.4-1.1,0.9-1.5c0.7-0.7,1.7-1.1,2.8-1
			C124.5,53.9,124.3,54.8,123.5,55.5z"/>
		<path class="st0" d="M119.5,70.1c-0.7-0.4-2.2,0.3-3.2,1.7c-1,1.4-0.8,2.6,0,3c0.7,0.4,1.9,0.1,2.9-1.3
			C120.3,72.1,120.3,70.5,119.5,70.1z"/>
		<path class="st0" d="M63.5,47.9c-0.1-1.7-1.1-3-2-3c-0.8,0.1-1.4,1.5-1.4,3.2c0.1,1.7,1,2.5,1.8,2.4
			C62.9,50.5,63.6,49.5,63.5,47.9z"/>
		<path class="st0" d="M121.2,48.1c0.1-1.7-0.6-3.1-1.4-3.2c-0.9-0.1-1.9,1.2-2,3c-0.1,1.7,0.7,2.6,1.5,2.7
			C120.2,50.7,121.1,49.8,121.2,48.1z"/>
		<path class="st0" d="M82.4,18.6c1.7-0.1,3.1-0.8,3.2-1.7c0-0.8-1.4-1.7-3.3-1.7c-1.7,0.1-2.6,1-2.6,1.7
			C79.6,17.9,80.6,18.7,82.4,18.6z"/>
		<path class="st0" d="M120.2,25c0.8-0.1,1.6-1,1.5-2.7c-0.1-1.7-1.1-3-2-3c-0.8,0.1-1.5,1.5-1.4,3.2
			C118.4,24.2,119.3,25.1,120.2,25z"/>
		<path class="st0" d="M71,55c0.2,0.3,1.2-0.3,1.1-0.6c-0.3-0.4-0.1-1.7,0.8-1.7v-0.3c0,0-1.4,0-1.6,0.9c0,0-1.1-1.1-1.4-1
			c-0.3,0.2,0.3,1.6,0.3,1.6c-0.9-0.2-1.4,1-1.4,1L69,55C69.6,54.2,70.8,54.6,71,55z"/>
		<path class="st0" d="M82,64.3c-0.7,0.9-1.1,2-1,3c1,0,2-0.4,2.7-1.3c0.8-0.9,1.1-1.9,1-3C83.8,63.1,82.9,63.6,82,64.3z"/>
		<path class="st0" d="M78.8,64.5c0.2,0.3,1.5,0.1,0.3,1c-0.1,0.1-0.2,0.1-0.3,0.2c0.7,1.9,0.4,3.7,0.7,4.7l2.1,0.1
			c-0.2-0.9-0.3-3.8-1.9-6.5c-0.2,0.2-0.5,0.3-0.7,0.4C78.9,64.3,78.6,64.2,78.8,64.5z"/>
		<path class="st0" d="M77.4,61.5c-0.1-0.1-0.2-0.2-0.4-0.3c1.1-0.4,2.5-1.2,1.7-2.6c0,0-1.7,1.8-3.1,1.7c1.8-1.2,2.6-3.3,1.6-4.8
			c-1-1.6-3.4-1.8-5.4-0.6c-2,1.2-2.8,3.5-1.8,5c0.9,1.5,3.1,1.8,5.1,0.7c-0.8,1.2-2.4,1.6-3.1,1.8c0,0,1.1,2.1,3.6-0.7
			c0.1,0.1,0.3,0.2,0.4,0.3c0.1-0.1,0.2-0.1,0.3-0.2C76.8,61.7,77.1,61.6,77.4,61.5z M75.3,60.2c-0.8,0.5-2.1,0.2-3.2-1.4
			c-1-1.6-1-3.3-0.2-3.7c0.8-0.4,2.3,0.3,3.3,1.9C76.4,58.5,76.1,59.8,75.3,60.2z"/>
		<path class="st0" d="M110.7,53.8c0,0,0.5-1.5,0.3-1.6c-0.3-0.1-1.3,1-1.3,1c-0.3-0.9-1.6-0.9-1.6-0.9v0.3c0.9,0.1,1.1,1.3,0.8,1.7
			c-0.1,0.3,0.9,0.9,1.1,0.6c0.3-0.4,1.4-0.8,2,0l0.2-0.2C112,54.8,111.6,53.6,110.7,53.8z"/>
		<path class="st0" d="M109,54.9c-2-1.2-4.4-1-5.4,0.6c-1,1.5-0.2,3.6,1.6,4.8c-1.3,0.1-3.1-1.7-3.1-1.7c-0.8,1.4,0.6,2.2,1.7,2.6
			c-0.1,0.1-0.3,0.2-0.4,0.3c0.2,0.1,0.5,0.2,0.8,0.3c0.2,0.1,0.3,0.2,0.4,0.3c0.1-0.1,0.3-0.2,0.5-0.3c2.5,2.8,3.6,0.7,3.6,0.7
			c-0.7-0.2-2.2-0.6-3-1.8c2,1.1,4.2,0.8,5.1-0.7C111.8,58.4,111,56.1,109,54.9z M108.8,58.9c-1.1,1.6-2.4,1.9-3.2,1.4
			c-0.8-0.4-1.1-1.7,0-3.2c1-1.6,2.5-2.4,3.3-1.9C109.8,55.5,109.8,57.3,108.8,58.9z"/>
		<path class="st0" d="M102.1,64.5c0.1-0.3-0.1-0.2-0.1-0.2c-0.2,0-0.5-0.2-0.7-0.3c-1.6,2.6-1.7,5.5-1.9,6.4l2.1-0.1
			c0.2-1,0-2.8,0.7-4.7c-0.1,0-0.2-0.1-0.3-0.2C100.5,64.6,101.9,64.9,102.1,64.5z"/>
		<path class="st0" d="M98.8,64.3c-0.8-0.8-1.8-1.2-2.7-1.2c-0.1,1,0.2,2.1,1,3c0.7,0.9,1.7,1.3,2.7,1.3
			C99.9,66.3,99.6,65.2,98.8,64.3z"/>
		<path class="st0" d="M103.5,61.6c-1-0.3-1.4,0.2-1.4,0.2c-0.2-0.1-2.4-2.5-4.1-4.2l1.5-0.3c-1.1-2.5-4-3.1-6-4.6
			c-1.5-1.1,0.2-1.6,0.6-1.3c3.7,3.1,7,1,7,1c-2.6-0.9-3.9-3.8-3.9-3.8c5.4,3.1,9.6-0.4,9.6-0.4c-3.6,0.6-6.4-2.8-6.4-2.8
			c5.6,1.3,9.5-2.4,9.5-2.4c-2.1,0.2-7.2-2-7.2-2c8.2-0.3,8.9-6.1,9-6.1c-2.3,1.5-8.3,0.8-8.3,0.8c8.6-3,7.9-10.1,7.9-10.1
			c-1.8,2.7-10.1,5.3-10.1,5.3c-2.3,0.7-4.1,2.7-4.1,5c-0.1,1-1,1.7-2,1.7c-2.2,0-2.2-3.2-2.2-4.7c0-2.3-0.1-4.9-1.7-4.9H88
			c-0.6,0-1.6-0.1-2,0.4c-0.8,1-0.7,3.6-0.3,3c0,0,1.3-0.3,2.1,0c1,0.3,0.3,3.6,0.3,4.3c0,1-0.9,1.8-2,1.8c-1,0-1.9-0.8-2-1.7
			c0-2.3-1.8-4.4-4-5c0,0-8.5-2.6-10.3-5.3c0,0-0.6,7.1,8,10.3c0,0-6.1,0.5-8.4-1c0.1,0,1.2,6.1,9.4,6.4c0,0-5.4,1.8-7.4,1.6
			c0,0,3.9,4.4,9.7,3.1c0,0-3.2,2.9-6.8,2.3c0,0,4.1,3.6,9.6,0.6c0,0-1.2,2.8-3.8,3.7c0,0,3.3,2.2,7.1-1c0.5-0.5,2,0.1,0.5,1.3
			c-2.1,1.6-5,2-6.3,4.6l1.5,0.3c-1.7,1.7-4,4.2-4.2,4.2c0,0-0.3-0.5-1.3-0.3c1,0.7,1.7,1.6,2.2,2.4c0.3-0.3,0.5-0.7,0.2-1
			c-0.1-0.1,2.9-2,5.1-3.3l0.3,1.4c0.8-1,1.9-1.7,3.1-2.1c-1.4,1.9-2.2,4-1.7,7c0,0,0.4-1.1,2.2-1.3c0,0-2.5,3.1,1.5,9
			c4.1-5.9,1.7-9,1.7-9c1.8,0.2,2.3,1.3,2.3,1.3c0.4-3-0.4-5.2-1.8-7c1.3,0.4,2.4,1.1,3.2,2.1l0.3-1.4c2.2,1.4,5.2,3.2,5.1,3.4
			c-0.3,0.4-0.1,0.8,0.2,1C101.8,63.1,102.5,62.3,103.5,61.6z M89.1,30.6c-0.5,0-0.9-0.3-0.9-0.8c0-0.5,0.4-0.9,0.9-0.9
			c0.5,0,0.8,0.4,0.8,0.9C90,30.3,89.6,30.6,89.1,30.6z"/>
		<path class="st0" d="M102.1,65.6c1.1,0.5,1.7-0.4,1.7-0.4c1.6,0.1,1.4-1.3,1.4-1.3c0.5-0.4,0.3-1.2-0.4-1.7
			C103.3,63.3,102.5,64.5,102.1,65.6z"/>
		<path class="st0" d="M76.1,62.1c-0.7,0.5-0.9,1.4-0.4,1.8c0,0-0.3,1.4,1.4,1.3c0,0,0.5,1,1.7,0.4C78.3,64.5,77.5,63.2,76.1,62.1z"
			/>
		<polygon class="st0" points="92.4,27.2 94.2,24.4 91.4,25.5 90.4,23 89.3,25.5 86.4,24.4 88.3,27.2 		"/>
		<path class="st0" d="M77.4,61.5c-0.3,0.1-0.6,0.2-1,0.4c-0.1,0.1-0.2,0.1-0.3,0.2c1.5,1.1,2.3,2.3,2.7,3.5c0.1,0,0.2-0.1,0.3-0.2
			c1.3-0.9-0.1-0.6-0.3-1c-0.2-0.3,0.1-0.2,0.1-0.2c0.3,0,0.5-0.2,0.7-0.4C79.1,63.1,78.3,62.3,77.4,61.5z"/>
		<path class="st0" d="M77.4,61.5c-0.3,0.1-0.6,0.2-1,0.4c-0.1,0.1-0.2,0.1-0.3,0.2c1.5,1.1,2.3,2.3,2.7,3.5c0.1,0,0.2-0.1,0.3-0.2
			c1.3-0.9-0.1-0.6-0.3-1c-0.2-0.3,0.1-0.2,0.1-0.2c0.3,0,0.5-0.2,0.7-0.4C79.1,63.1,78.3,62.3,77.4,61.5z"/>
		<path class="st0" d="M103.5,61.6c-0.9,0.7-1.7,1.6-2.2,2.4c0.2,0.2,0.5,0.3,0.7,0.3c0,0,0.2-0.1,0.1,0.2c-0.2,0.3-1.5,0.1-0.3,1
			c0.1,0.1,0.2,0.1,0.3,0.2c0.4-1.2,1.2-2.4,2.6-3.5c-0.1-0.1-0.3-0.2-0.4-0.3C104,61.7,103.7,61.6,103.5,61.6z"/>
		<path class="st0" d="M103.5,61.6c-0.9,0.7-1.7,1.6-2.2,2.4c0.2,0.2,0.5,0.3,0.7,0.3c0,0,0.2-0.1,0.1,0.2c-0.2,0.3-1.5,0.1-0.3,1
			c0.1,0.1,0.2,0.1,0.3,0.2c0.4-1.2,1.2-2.4,2.6-3.5c-0.1-0.1-0.3-0.2-0.4-0.3C104,61.7,103.7,61.6,103.5,61.6z"/>
	</g>
	<g>
		<path class="st0" d="M164.5,140.7H16.4c-0.1,0-0.1-0.1-0.1-0.1c0-0.1,0.1-0.1,0.1-0.1h148.1c0.1,0,0.1,0.1,0.1,0.1
			C164.6,140.6,164.6,140.7,164.5,140.7z"/>
	</g>
	<text transform="matrix(1 0 0 1 67.5121 138.1185)" class="st0 st1 st2">HACIENDA</text>
	<text transform="matrix(1 0 0 1 3.3178 153.1185)" class="st0 st1 st3">Unidad Administrativa Especial de Catastro Distrital</text>
</g>
</svg>
