<?xml version="1.0" encoding="UTF-8" standalone="no"?>
<svg width="200px" height="200px" viewBox="0 0 200 200" version="1.1" xmlns="http://www.w3.org/2000/svg" xmlns:xlink="http://www.w3.org/1999/xlink" xmlns:sketch="http://www.bohemiancoding.com/sketch/ns">
    <!-- Generator: Sketch 3.4.3 (16044) - http://www.bohemiancoding.com/sketch -->
    <title>issuu</title>
    <desc>Created with Sketch.</desc>
    <defs></defs>
    <g id="Page-1" stroke="none" stroke-width="1" fill="none" fill-rule="evenodd" sketch:type="MSPage">
        <g id="issuu" sketch:type="MSLayerGroup" fill="#000000">
            <path d="M0.0117406395,199.811893 L0.0117406395,99.9526918 C0.0117406395,44.8048097 44.7166755,0.0989627311 99.8645577,0.0989627311 L99.8645577,0.0989627311 C155.01244,0.0989627311 199.719199,44.8048097 199.719199,99.9526918 L199.719199,99.9526918 C199.719199,155.100574 155.01244,199.807333 99.8645577,199.807333 L99.8645577,199.807333 C99.7058614,199.807333 99.5480771,199.800949 99.3893808,199.800949 L99.3893808,199.800949 L99.3893808,199.811893 L0.0117406395,199.811893 L0.0117406395,199.811893 Z M99.9366095,31.3566649 C61.6497549,31.7187479 30.9027996,63.05215 31.2639705,101.333532 L31.2639705,101.333532 C31.6251414,139.619475 62.9594556,170.36643 101.244486,170.005259 L101.244486,170.005259 C139.530428,169.643176 170.277384,138.309774 169.917125,100.024744 L169.917125,100.024744 C169.557778,61.9677251 138.583723,31.3557528 100.604228,31.3539287 L100.604228,31.3539287 C100.379865,31.3539287 100.160973,31.3548408 99.9366095,31.3566649 L99.9366095,31.3566649 Z" id="path54" sketch:type="MSShapeGroup" transform="translate(99.865470, 99.955428) scale(1, -1) translate(-99.865470, -99.955428) "></path>
            <path d="M49.1500484,100.4208 C48.8846425,72.3716817 71.4131352,49.4145265 99.4640773,49.1500327 L99.4640773,49.1500327 C127.515019,48.8855388 150.473087,71.4131194 150.738492,99.4604133 L150.738492,99.4604133 C151.001162,127.512267 128.475406,150.469423 100.423552,150.733916 L100.423552,150.733916 C100.261207,150.735741 100.096126,150.736653 99.9337819,150.736653 L99.9337819,150.736653 C72.1044674,150.737565 49.4136302,128.308485 49.1500484,100.4208 M99.7012097,74.2231387 C85.4969773,74.3572097 74.0890834,85.982171 74.2240665,100.183667 L74.2240665,100.183667 C74.3581375,114.3879 85.9821867,125.794881 100.186419,125.66081 L100.186419,125.66081 C114.390652,125.526739 125.798545,113.90269 125.663562,99.6984578 L125.663562,99.6984578 C125.529491,85.5799579 114.037689,74.2231387 99.9483746,74.2222267 L99.9483746,74.2222267 C99.8653783,74.2222267 99.784206,74.2222267 99.7012097,74.2231387" id="path32" sketch:type="MSShapeGroup"></path>
        </g>
    </g>
</svg>